<svg width="386.28" height="386.28800000000007" xmlns="http://www.w3.org/2000/svg" data-name="Layer 1">

 <g>
  <title>Layer 1</title>
  <path id="svg_4" fill="#3f3d56" d="m148.11549,348.45653a87.33929,87.33929 0 0 0 44.47022,13.94a20.84973,20.84973 0 0 1 -0.9502,1.96a25.06735,25.06735 0 0 1 -7.60009,8.55a24.96917,24.96917 0 0 1 -39.33985,-20.42l0,-4.03l3.41992,0z"/>
  <path id="svg_5" fill="#3f3d56" d="m241.38551,349.63652l0,2.85a24.96061,24.96061 0 0 1 -46.87988,11.95a20.84826,20.84826 0 0 1 -0.99023,-2.01c0.73,0.02 1.45019,0.03 2.18017,0.03a87.46657,87.46657 0 0 0 45.68994,-12.82z"/>
  <path id="svg_6" fill="#3f3d56" d="m274.50209,66.05756c-0.75,-0.11 -1.51025,-0.18 -2.27,-0.23a83.981,83.981 0 0 1 1.66992,62.71c0.76026,-0.09 1.51026,-0.21 2.26026,-0.35a31.50228,31.50228 0 0 0 -1.66016,-62.13l-0.00002,0z"/>
  <path id="svg_7" fill="#3f3d56" d="m118.11195,65.82758c-0.75976,0.05 -1.52,0.12 -2.27,0.23a31.50227,31.50227 0 0 0 -1.66015,62.13c0.75,0.14 1.5,0.26 2.26025,0.35a83.981,83.981 0 0 1 1.66992,-62.71l-0.00002,0z"/>
  <path id="svg_8" fill="#3f3d56" d="m274.50209,66.05756a85.99677,85.99677 0 1 0 6.66992,33.2a86.1148,86.1148 0 0 0 -6.66992,-33.2zm-0.6001,62.48a83.981,83.981 0 1 1 5.27,-29.28a84.122,84.122 0 0 1 -5.27,29.28004l0,-0.00004z"/>
  <path id="svg_9" fill="#3f3d56" d="m239.17201,79.75758l-88,0a17.5,17.5 0 0 0 0,35l88,0a17.5,17.5 0 0 0 0,-35z"/>
  <path id="svg_10" fill="#3f3d56" d="m195.69557,184.45653a89.99675,89.99675 0 0 0 -4.06006,179.9c0.9502,0.05 1.91016,0.08 2.87012,0.08c0.3999,0.02 0.79,0.02 1.18994,0.02a90,90 0 0 0 0,-180zm45.68994,165.18a87.46657,87.46657 0 0 1 -45.68994,12.82c-0.73,0 -1.45019,-0.01 -2.18017,-0.03q-0.46509,0 -0.92969,-0.03a88.0512,88.0512 0 1 1 48.7998,-12.76z"/>
  <path id="svg_11" fill="#3f3d56" d="m258.86232,252.29002l-39.3335,0a10.3335,10.3335 0 0 1 0,-20.667l39.3335,0a10.3335,10.3335 0 0 1 0,20.667z"/>
  <circle id="svg_12" fill="#f2f2f2" r="5.24444" cy="241.95652" cx="222.15114"/>
  <circle id="svg_13" fill="#f2f2f2" r="5.24444" cy="241.95652" cx="239.19558"/>
  <circle id="svg_14" fill="#00bfa6" r="5.24444" cy="241.95652" cx="256.24003"/>
  <circle id="svg_34" fill="#00bfa6" r="5.24444" cy="97.19832" cx="168.03874"/>
  <circle id="svg_35" fill="#00bfa6" r="5.24444" cy="97.67225" cx="221.59325"/>
 </g>
</svg>